<svg id="visual" viewBox="0 0 960 540" width="960" height="540" xmlns="http://www.w3.org/2000/svg" xmlns:xlink="http://www.w3.org/1999/xlink" version="1.1"><rect x="0" y="0" width="960" height="540" fill="#001220"></rect><defs><linearGradient id="grad1_0" x1="43.8%" y1="0%" x2="100%" y2="100%"><stop offset="14.444444444444446%" stop-color="#fbae3c" stop-opacity="1"></stop><stop offset="85.55555555555554%" stop-color="#fbae3c" stop-opacity="1"></stop></linearGradient></defs><defs><linearGradient id="grad1_1" x1="43.8%" y1="0%" x2="100%" y2="100%"><stop offset="14.444444444444446%" stop-color="#fbae3c" stop-opacity="1"></stop><stop offset="85.55555555555554%" stop-color="#f48350" stop-opacity="1"></stop></linearGradient></defs><defs><linearGradient id="grad1_2" x1="43.8%" y1="0%" x2="100%" y2="100%"><stop offset="14.444444444444446%" stop-color="#d96162" stop-opacity="1"></stop><stop offset="85.55555555555554%" stop-color="#f48350" stop-opacity="1"></stop></linearGradient></defs><defs><linearGradient id="grad1_3" x1="43.8%" y1="0%" x2="100%" y2="100%"><stop offset="14.444444444444446%" stop-color="#d96162" stop-opacity="1"></stop><stop offset="85.55555555555554%" stop-color="#af4b6d" stop-opacity="1"></stop></linearGradient></defs><defs><linearGradient id="grad1_4" x1="43.8%" y1="0%" x2="100%" y2="100%"><stop offset="14.444444444444446%" stop-color="#7c3e6b" stop-opacity="1"></stop><stop offset="85.55555555555554%" stop-color="#af4b6d" stop-opacity="1"></stop></linearGradient></defs><defs><linearGradient id="grad1_5" x1="43.8%" y1="0%" x2="100%" y2="100%"><stop offset="14.444444444444446%" stop-color="#7c3e6b" stop-opacity="1"></stop><stop offset="85.55555555555554%" stop-color="#49335c" stop-opacity="1"></stop></linearGradient></defs><defs><linearGradient id="grad1_6" x1="43.8%" y1="0%" x2="100%" y2="100%"><stop offset="14.444444444444446%" stop-color="#1d2540" stop-opacity="1"></stop><stop offset="85.55555555555554%" stop-color="#49335c" stop-opacity="1"></stop></linearGradient></defs><defs><linearGradient id="grad1_7" x1="43.8%" y1="0%" x2="100%" y2="100%"><stop offset="14.444444444444446%" stop-color="#1d2540" stop-opacity="1"></stop><stop offset="85.55555555555554%" stop-color="#001220" stop-opacity="1"></stop></linearGradient></defs><defs><linearGradient id="grad2_0" x1="0%" y1="0%" x2="56.3%" y2="100%"><stop offset="14.444444444444446%" stop-color="#fbae3c" stop-opacity="1"></stop><stop offset="85.55555555555554%" stop-color="#fbae3c" stop-opacity="1"></stop></linearGradient></defs><defs><linearGradient id="grad2_1" x1="0%" y1="0%" x2="56.3%" y2="100%"><stop offset="14.444444444444446%" stop-color="#f48350" stop-opacity="1"></stop><stop offset="85.55555555555554%" stop-color="#fbae3c" stop-opacity="1"></stop></linearGradient></defs><defs><linearGradient id="grad2_2" x1="0%" y1="0%" x2="56.3%" y2="100%"><stop offset="14.444444444444446%" stop-color="#f48350" stop-opacity="1"></stop><stop offset="85.55555555555554%" stop-color="#d96162" stop-opacity="1"></stop></linearGradient></defs><defs><linearGradient id="grad2_3" x1="0%" y1="0%" x2="56.3%" y2="100%"><stop offset="14.444444444444446%" stop-color="#af4b6d" stop-opacity="1"></stop><stop offset="85.55555555555554%" stop-color="#d96162" stop-opacity="1"></stop></linearGradient></defs><defs><linearGradient id="grad2_4" x1="0%" y1="0%" x2="56.3%" y2="100%"><stop offset="14.444444444444446%" stop-color="#af4b6d" stop-opacity="1"></stop><stop offset="85.55555555555554%" stop-color="#7c3e6b" stop-opacity="1"></stop></linearGradient></defs><defs><linearGradient id="grad2_5" x1="0%" y1="0%" x2="56.3%" y2="100%"><stop offset="14.444444444444446%" stop-color="#49335c" stop-opacity="1"></stop><stop offset="85.55555555555554%" stop-color="#7c3e6b" stop-opacity="1"></stop></linearGradient></defs><defs><linearGradient id="grad2_6" x1="0%" y1="0%" x2="56.3%" y2="100%"><stop offset="14.444444444444446%" stop-color="#49335c" stop-opacity="1"></stop><stop offset="85.55555555555554%" stop-color="#1d2540" stop-opacity="1"></stop></linearGradient></defs><defs><linearGradient id="grad2_7" x1="0%" y1="0%" x2="56.3%" y2="100%"><stop offset="14.444444444444446%" stop-color="#001220" stop-opacity="1"></stop><stop offset="85.55555555555554%" stop-color="#1d2540" stop-opacity="1"></stop></linearGradient></defs><g transform="translate(960, 0)"><path d="M0 189C-15.2 179.7 -30.4 170.3 -43.5 162.3C-56.5 154.2 -67.4 147.5 -83.5 144.6C-99.6 141.8 -120.8 142.8 -133.6 133.6C-146.5 124.5 -151 105.2 -153.3 88.5C-155.6 71.8 -155.7 57.6 -161.3 43.2C-166.9 28.9 -177.9 14.4 -189 0L0 0Z" fill="#0c1c30"></path><path d="M0 165.4C-13.3 157.2 -26.6 149 -38 142C-49.5 135 -59 129.1 -73.1 126.5C-87.1 124 -105.7 124.9 -116.9 116.9C-128.2 108.9 -132.1 92.1 -134.1 77.4C-136.1 62.8 -136.3 50.4 -141.1 37.8C-146 25.3 -155.7 12.6 -165.4 0L0 0Z" fill="#312c4f"></path><path d="M0 141.8C-11.4 134.7 -22.8 127.7 -32.6 121.7C-42.4 115.7 -50.6 110.6 -62.6 108.5C-74.7 106.3 -90.6 107.1 -100.2 100.2C-109.9 93.4 -113.2 78.9 -115 66.4C-116.7 53.8 -116.8 43.2 -121 32.4C-125.2 21.7 -133.5 10.8 -141.7 0L0 0Z" fill="#623965"></path><path d="M0 118.1C-9.5 112.3 -19 106.4 -27.2 101.4C-35.3 96.4 -42.1 92.2 -52.2 90.4C-62.2 88.6 -75.5 89.2 -83.5 83.5C-91.6 77.8 -94.4 65.8 -95.8 55.3C-97.2 44.8 -97.3 36 -100.8 27C-104.3 18.1 -111.2 9 -118.1 0L0 0Z" fill="#96446e"></path><path d="M0 94.5C-7.6 89.8 -15.2 85.2 -21.7 81.1C-28.3 77.1 -33.7 73.7 -41.7 72.3C-49.8 70.9 -60.4 71.4 -66.8 66.8C-73.2 62.3 -75.5 52.6 -76.6 44.3C-77.8 35.9 -77.9 28.8 -80.7 21.6C-83.4 14.4 -89 7.2 -94.5 0L0 0Z" fill="#c55469"></path><path d="M0 70.9C-5.7 67.4 -11.4 63.9 -16.3 60.9C-21.2 57.8 -25.3 55.3 -31.3 54.2C-37.3 53.2 -45.3 53.5 -50.1 50.1C-54.9 46.7 -56.6 39.5 -57.5 33.2C-58.3 26.9 -58.4 21.6 -60.5 16.2C-62.6 10.8 -66.7 5.4 -70.9 0L0 0Z" fill="#e9705a"></path><path d="M0 47.3C-3.8 44.9 -7.6 42.6 -10.9 40.6C-14.1 38.6 -16.9 36.9 -20.9 36.2C-24.9 35.4 -30.2 35.7 -33.4 33.4C-36.6 31.1 -37.7 26.3 -38.3 22.1C-38.9 17.9 -38.9 14.4 -40.3 10.8C-41.7 7.2 -44.5 3.6 -47.2 0L0 0Z" fill="#fa9845"></path><path d="M0 23.6C-1.9 22.5 -3.8 21.3 -5.4 20.3C-7.1 19.3 -8.4 18.4 -10.4 18.1C-12.4 17.7 -15.1 17.8 -16.7 16.7C-18.3 15.6 -18.9 13.2 -19.2 11.1C-19.4 9 -19.5 7.2 -20.2 5.4C-20.9 3.6 -22.2 1.8 -23.6 0L0 0Z" fill="#fbae3c"></path></g><g transform="translate(0, 540)"><path d="M0 -189C16.6 -188.3 33.2 -187.6 48.9 -182.6C64.6 -177.5 79.5 -168.1 89.5 -155C99.5 -141.9 104.6 -125.1 113.1 -113.1C121.7 -101.1 133.8 -93.9 145.5 -84C157.2 -74.1 168.6 -61.5 175.8 -47.1C183 -32.7 186 -16.3 189 0L0 0Z" fill="#0c1c30"></path><path d="M0 -165.4C14.5 -164.8 29 -164.2 42.8 -159.7C56.6 -155.3 69.6 -147.1 78.3 -135.6C87 -124.2 91.5 -109.5 99 -99C106.5 -88.5 117 -82.2 127.3 -73.5C137.6 -64.8 147.5 -53.9 153.8 -41.2C160.1 -28.6 162.7 -14.3 165.4 0L0 0Z" fill="#312c4f"></path><path d="M0 -141.7C12.4 -141.2 24.9 -140.7 36.7 -136.9C48.5 -133.1 59.6 -126.1 67.1 -116.3C74.6 -106.4 78.4 -93.9 84.9 -84.9C91.3 -75.8 100.3 -70.4 109.1 -63C117.9 -55.6 126.5 -46.2 131.8 -35.3C137.2 -24.5 139.5 -12.2 141.8 0L0 0Z" fill="#623965"></path><path d="M0 -118.1C10.4 -117.7 20.7 -117.3 30.6 -114.1C40.4 -110.9 49.7 -105.1 55.9 -96.9C62.2 -88.7 65.4 -78.2 70.7 -70.7C76.1 -63.2 83.6 -58.7 90.9 -52.5C98.3 -46.3 105.4 -38.5 109.9 -29.4C114.4 -20.4 116.2 -10.2 118.1 0L0 0Z" fill="#96446e"></path><path d="M0 -94.5C8.3 -94.2 16.6 -93.8 24.5 -91.3C32.3 -88.8 39.8 -84.1 44.7 -77.5C49.7 -71 52.3 -62.6 56.6 -56.6C60.9 -50.6 66.9 -46.9 72.7 -42C78.6 -37.1 84.3 -30.8 87.9 -23.6C91.5 -16.3 93 -8.2 94.5 0L0 0Z" fill="#c55469"></path><path d="M0 -70.9C6.2 -70.6 12.4 -70.4 18.3 -68.5C24.2 -66.6 29.8 -63 33.6 -58.1C37.3 -53.2 39.2 -46.9 42.4 -42.4C45.6 -37.9 50.2 -35.2 54.6 -31.5C59 -27.8 63.2 -23.1 65.9 -17.7C68.6 -12.2 69.7 -6.1 70.9 0L0 0Z" fill="#e9705a"></path><path d="M0 -47.2C4.1 -47.1 8.3 -46.9 12.2 -45.6C16.2 -44.4 19.9 -42 22.4 -38.8C24.9 -35.5 26.1 -31.3 28.3 -28.3C30.4 -25.3 33.4 -23.5 36.4 -21C39.3 -18.5 42.2 -15.4 43.9 -11.8C45.7 -8.2 46.5 -4.1 47.3 0L0 0Z" fill="#fa9845"></path><path d="M0 -23.6C2.1 -23.5 4.1 -23.5 6.1 -22.8C8.1 -22.2 9.9 -21 11.2 -19.4C12.4 -17.7 13.1 -15.6 14.1 -14.1C15.2 -12.6 16.7 -11.7 18.2 -10.5C19.7 -9.3 21.1 -7.7 22 -5.9C22.9 -4.1 23.2 -2 23.6 0L0 0Z" fill="#fbae3c"></path></g></svg>