<svg id="visual" viewBox="0 0 540 960" width="540" height="960" xmlns="http://www.w3.org/2000/svg" xmlns:xlink="http://www.w3.org/1999/xlink" version="1.1"><rect x="0" y="0" width="540" height="960" fill="#001220"></rect><defs><linearGradient id="grad1_0" x1="0%" y1="0%" x2="100%" y2="100%"><stop offset="30%" stop-color="#fbae3c" stop-opacity="1"></stop><stop offset="70%" stop-color="#fbae3c" stop-opacity="1"></stop></linearGradient></defs><defs><linearGradient id="grad1_1" x1="0%" y1="0%" x2="100%" y2="100%"><stop offset="30%" stop-color="#fbae3c" stop-opacity="1"></stop><stop offset="70%" stop-color="#f48350" stop-opacity="1"></stop></linearGradient></defs><defs><linearGradient id="grad1_2" x1="0%" y1="0%" x2="100%" y2="100%"><stop offset="30%" stop-color="#d96162" stop-opacity="1"></stop><stop offset="70%" stop-color="#f48350" stop-opacity="1"></stop></linearGradient></defs><defs><linearGradient id="grad1_3" x1="0%" y1="0%" x2="100%" y2="100%"><stop offset="30%" stop-color="#d96162" stop-opacity="1"></stop><stop offset="70%" stop-color="#af4b6d" stop-opacity="1"></stop></linearGradient></defs><defs><linearGradient id="grad1_4" x1="0%" y1="0%" x2="100%" y2="100%"><stop offset="30%" stop-color="#7c3e6b" stop-opacity="1"></stop><stop offset="70%" stop-color="#af4b6d" stop-opacity="1"></stop></linearGradient></defs><defs><linearGradient id="grad1_5" x1="0%" y1="0%" x2="100%" y2="100%"><stop offset="30%" stop-color="#7c3e6b" stop-opacity="1"></stop><stop offset="70%" stop-color="#49335c" stop-opacity="1"></stop></linearGradient></defs><defs><linearGradient id="grad1_6" x1="0%" y1="0%" x2="100%" y2="100%"><stop offset="30%" stop-color="#1d2540" stop-opacity="1"></stop><stop offset="70%" stop-color="#49335c" stop-opacity="1"></stop></linearGradient></defs><defs><linearGradient id="grad1_7" x1="0%" y1="0%" x2="100%" y2="100%"><stop offset="30%" stop-color="#1d2540" stop-opacity="1"></stop><stop offset="70%" stop-color="#001220" stop-opacity="1"></stop></linearGradient></defs><defs><linearGradient id="grad2_0" x1="0%" y1="0%" x2="100%" y2="100%"><stop offset="30%" stop-color="#fbae3c" stop-opacity="1"></stop><stop offset="70%" stop-color="#fbae3c" stop-opacity="1"></stop></linearGradient></defs><defs><linearGradient id="grad2_1" x1="0%" y1="0%" x2="100%" y2="100%"><stop offset="30%" stop-color="#f48350" stop-opacity="1"></stop><stop offset="70%" stop-color="#fbae3c" stop-opacity="1"></stop></linearGradient></defs><defs><linearGradient id="grad2_2" x1="0%" y1="0%" x2="100%" y2="100%"><stop offset="30%" stop-color="#f48350" stop-opacity="1"></stop><stop offset="70%" stop-color="#d96162" stop-opacity="1"></stop></linearGradient></defs><defs><linearGradient id="grad2_3" x1="0%" y1="0%" x2="100%" y2="100%"><stop offset="30%" stop-color="#af4b6d" stop-opacity="1"></stop><stop offset="70%" stop-color="#d96162" stop-opacity="1"></stop></linearGradient></defs><defs><linearGradient id="grad2_4" x1="0%" y1="0%" x2="100%" y2="100%"><stop offset="30%" stop-color="#af4b6d" stop-opacity="1"></stop><stop offset="70%" stop-color="#7c3e6b" stop-opacity="1"></stop></linearGradient></defs><defs><linearGradient id="grad2_5" x1="0%" y1="0%" x2="100%" y2="100%"><stop offset="30%" stop-color="#49335c" stop-opacity="1"></stop><stop offset="70%" stop-color="#7c3e6b" stop-opacity="1"></stop></linearGradient></defs><defs><linearGradient id="grad2_6" x1="0%" y1="0%" x2="100%" y2="100%"><stop offset="30%" stop-color="#49335c" stop-opacity="1"></stop><stop offset="70%" stop-color="#1d2540" stop-opacity="1"></stop></linearGradient></defs><defs><linearGradient id="grad2_7" x1="0%" y1="0%" x2="100%" y2="100%"><stop offset="30%" stop-color="#001220" stop-opacity="1"></stop><stop offset="70%" stop-color="#1d2540" stop-opacity="1"></stop></linearGradient></defs><g transform="translate(540, 0)"><path d="M0 243C-19.7 237.2 -39.4 231.4 -61.1 228C-82.7 224.5 -106.3 223.3 -121.5 210.4C-136.7 197.6 -143.5 173.1 -155.6 155.6C-167.7 138 -185.1 127.3 -193.1 111.5C-201.2 95.7 -199.9 74.8 -206.7 55.4C-213.5 36 -228.2 18 -243 0L0 0Z" fill="#0c1c30"></path><path d="M0 212.6C-17.3 207.6 -34.5 202.5 -53.4 199.5C-72.4 196.4 -93 195.4 -106.3 184.1C-119.6 172.9 -125.5 151.5 -136.1 136.1C-146.7 120.7 -161.9 111.4 -169 97.6C-176 83.7 -175 65.5 -180.9 48.5C-186.8 31.5 -199.7 15.7 -212.6 0L0 0Z" fill="#312c4f"></path><path d="M0 182.3C-14.8 177.9 -29.6 173.6 -45.8 171C-62 168.4 -79.7 167.5 -91.1 157.8C-102.5 148.2 -107.6 129.9 -116.7 116.7C-125.7 103.5 -138.8 95.5 -144.8 83.6C-150.9 71.8 -150 56.1 -155 41.5C-160.1 27 -171.2 13.5 -182.2 0L0 0Z" fill="#623965"></path><path d="M0 151.9C-12.3 148.3 -24.6 144.7 -38.2 142.5C-51.7 140.3 -66.4 139.5 -75.9 131.5C-85.4 123.5 -89.7 108.2 -97.2 97.2C-104.8 86.2 -115.7 79.6 -120.7 69.7C-125.7 59.8 -125 46.8 -129.2 34.6C-133.4 22.5 -142.6 11.2 -151.9 0L0 0Z" fill="#96446e"></path><path d="M0 121.5C-9.9 118.6 -19.7 115.7 -30.5 114C-41.4 112.2 -53.2 111.6 -60.7 105.2C-68.3 98.8 -71.7 86.6 -77.8 77.8C-83.8 69 -92.5 63.6 -96.6 55.8C-100.6 47.9 -100 37.4 -103.4 27.7C-106.7 18 -114.1 9 -121.5 0L0 0Z" fill="#c55469"></path><path d="M0 91.1C-7.4 89 -14.8 86.8 -22.9 85.5C-31 84.2 -39.9 83.7 -45.6 78.9C-51.3 74.1 -53.8 64.9 -58.3 58.3C-62.9 51.7 -69.4 47.7 -72.4 41.8C-75.4 35.9 -75 28.1 -77.5 20.8C-80.1 13.5 -85.6 6.7 -91.1 0L0 0Z" fill="#e9705a"></path><path d="M0 60.8C-4.9 59.3 -9.9 57.9 -15.3 57C-20.7 56.1 -26.6 55.8 -30.4 52.6C-34.2 49.4 -35.9 43.3 -38.9 38.9C-41.9 34.5 -46.3 31.8 -48.3 27.9C-50.3 23.9 -50 18.7 -51.7 13.8C-53.4 9 -57.1 4.5 -60.7 0L0 0Z" fill="#fa9845"></path><path d="M0 30.4C-2.5 29.7 -4.9 28.9 -7.6 28.5C-10.3 28.1 -13.3 27.9 -15.2 26.3C-17.1 24.7 -17.9 21.6 -19.4 19.4C-21 17.2 -23.1 15.9 -24.1 13.9C-25.1 12 -25 9.4 -25.8 6.9C-26.7 4.5 -28.5 2.2 -30.4 0L0 0Z" fill="#fbae3c"></path></g><g transform="translate(0, 960)"><path d="M0 -243C20.3 -236.4 40.6 -229.7 59.5 -222.2C78.4 -214.6 95.9 -206.1 114 -197.5C132.1 -188.8 150.8 -179.9 167.6 -167.6C184.4 -155.3 199.3 -139.5 210.4 -121.5C221.6 -103.5 229 -83.3 233.8 -62.6C238.6 -42 240.8 -21 243 0L0 0Z" fill="#0c1c30"></path><path d="M0 -212.6C17.8 -206.8 35.6 -201 52.1 -194.4C68.6 -187.8 83.9 -180.4 99.7 -172.8C115.6 -165.2 131.9 -157.4 146.6 -146.6C161.3 -135.9 174.4 -122.1 184.1 -106.3C193.9 -90.6 200.3 -72.9 204.5 -54.8C208.7 -36.8 210.7 -18.4 212.6 0L0 0Z" fill="#312c4f"></path><path d="M0 -182.2C15.2 -177.3 30.5 -172.3 44.6 -166.6C58.8 -161 71.9 -154.6 85.5 -148.1C99.1 -141.6 113.1 -134.9 125.7 -125.7C138.3 -116.4 149.5 -104.6 157.8 -91.1C166.2 -77.6 171.7 -62.4 175.3 -47C178.9 -31.5 180.6 -15.8 182.3 0L0 0Z" fill="#623965"></path><path d="M0 -151.9C12.7 -147.7 25.4 -143.6 37.2 -138.9C49 -134.1 59.9 -128.8 71.2 -123.4C82.6 -118 94.2 -112.4 104.7 -104.7C115.2 -97 124.6 -87.2 131.5 -75.9C138.5 -64.7 143.1 -52 146.1 -39.1C149.1 -26.3 150.5 -13.1 151.9 0L0 0Z" fill="#96446e"></path><path d="M0 -121.5C10.2 -118.2 20.3 -114.9 29.8 -111.1C39.2 -107.3 48 -103.1 57 -98.7C66 -94.4 75.4 -90 83.8 -83.8C92.2 -77.6 99.7 -69.8 105.2 -60.8C110.8 -51.7 114.5 -41.6 116.9 -31.3C119.3 -21 120.4 -10.5 121.5 0L0 0Z" fill="#c55469"></path><path d="M0 -91.1C7.6 -88.6 15.2 -86.1 22.3 -83.3C29.4 -80.5 36 -77.3 42.7 -74C49.5 -70.8 56.5 -67.5 62.8 -62.8C69.1 -58.2 74.7 -52.3 78.9 -45.6C83.1 -38.8 85.9 -31.2 87.7 -23.5C89.5 -15.8 90.3 -7.9 91.1 0L0 0Z" fill="#e9705a"></path><path d="M0 -60.7C5.1 -59.1 10.2 -57.4 14.9 -55.5C19.6 -53.7 24 -51.5 28.5 -49.4C33 -47.2 37.7 -45 41.9 -41.9C46.1 -38.8 49.8 -34.9 52.6 -30.4C55.4 -25.9 57.2 -20.8 58.4 -15.7C59.6 -10.5 60.2 -5.3 60.8 0L0 0Z" fill="#fa9845"></path><path d="M0 -30.4C2.5 -29.5 5.1 -28.7 7.4 -27.8C9.8 -26.8 12 -25.8 14.2 -24.7C16.5 -23.6 18.8 -22.5 20.9 -20.9C23 -19.4 24.9 -17.4 26.3 -15.2C27.7 -12.9 28.6 -10.4 29.2 -7.8C29.8 -5.3 30.1 -2.6 30.4 0L0 0Z" fill="#fbae3c"></path></g></svg>